<svg xmlns="http://www.w3.org/2000/svg" width="300" height="300" viewBox="0 0 300 300"><rect width="100%" height="100%" fill="#3349ff"/><path fill="#000000" d="M105.03 121.81v8.62h-17v47.77H77.54v-47.77H60.53v-8.62zm42.98 8.34h-25.04v15.64h19.74v8.07h-19.74v15.96h25.04v8.38h-35.57v-56.39h35.57zm41.93-3.04-2.62 4.95q-.47.82-.99 1.19-.53.37-1.31.37-.82 0-1.77-.6-.96-.61-2.28-1.35-1.33-.74-3.11-1.34-1.77-.61-4.19-.61-2.18 0-3.82.53t-2.75 1.46q-1.11.94-1.66 2.24-.54 1.31-.54 2.87 0 1.99 1.11 3.32 1.11 1.32 2.94 2.26 1.84.93 4.18 1.67 2.34.75 4.79 1.58 2.46.84 4.8 1.95 2.34 1.12 4.17 2.81 1.84 1.7 2.95 4.16 1.11 2.45 1.11 5.96 0 3.82-1.31 7.16-1.3 3.33-3.82 5.81-2.51 2.48-6.14 3.9t-8.31 1.42q-2.69 0-5.3-.52-2.62-.53-5.01-1.5-2.4-.98-4.51-2.34-2.1-1.37-3.74-3.05l3.08-5.03q.39-.54 1.01-.91.63-.37 1.33-.37.97 0 2.1.8 1.14.79 2.7 1.77t3.64 1.77q2.09.8 5.01.8 4.49 0 6.95-2.12 2.45-2.13 2.45-6.1 0-2.23-1.11-3.63-1.11-1.41-2.94-2.36-1.84-.96-4.18-1.62t-4.75-1.44q-2.42-.78-4.76-1.88-2.34-1.09-4.18-2.84-1.83-1.76-2.94-4.39t-1.11-6.49q0-3.08 1.23-6.01 1.23-2.92 3.57-5.19 2.34-2.26 5.77-3.62 3.43-1.37 7.88-1.37 4.99 0 9.2 1.56t7.18 4.37m49.53-5.3v8.62h-17.01v47.77h-10.49v-47.77h-17v-8.62z"/></svg>