<svg xmlns="http://www.w3.org/2000/svg" width="400" height="400" viewBox="0 0 400 400"><rect width="100%" height="100%" fill="#3349ff"/><path fill="#000000" d="M110.205 210.44q.58 0 1.03.45l2.81 3.05q-2.33 2.89-5.73 4.43-3.41 1.53-8.18 1.53-4.27 0-7.67-1.45-3.41-1.46-5.82-4.06-2.41-2.59-3.7-6.2-1.28-3.6-1.28-7.87 0-4.32 1.38-7.91t3.88-6.19q2.5-2.59 5.98-4.04 3.47-1.44 7.68-1.44 4.19 0 7.43 1.37 3.25 1.38 5.53 3.61l-2.39 3.31q-.21.32-.54.56t-.91.24q-.4 0-.82-.23-.43-.22-.93-.56-.51-.33-1.17-.72-.66-.4-1.54-.73-.87-.33-2.02-.56-1.16-.22-2.67-.22-2.57 0-4.7.91t-3.67 2.65-2.38 4.24q-.85 2.5-.85 5.71 0 3.23.91 5.75.92 2.52 2.48 4.24t3.68 2.64q2.12.91 4.56.91 1.46 0 2.64-.16t2.17-.5q.99-.35 1.88-.89t1.76-1.34q.27-.23.56-.38t.61-.15m22.07 2.02v-4.59q-2.83.14-4.77.49-1.93.36-3.1.92-1.16.55-1.67 1.3-.5.74-.5 1.61 0 1.73 1.02 2.47t2.66.74q2.02 0 3.49-.73t2.87-2.21m-13.83-14.29-1.16-2.09q4.69-4.29 11.28-4.29 2.39 0 4.27.78t3.18 2.17 1.98 3.33q.67 1.93.67 4.24v17.17h-2.97q-.92 0-1.43-.28-.5-.28-.79-1.12l-.59-1.97q-1.03.93-2.01 1.63-.98.71-2.04 1.18-1.06.48-2.27.73-1.2.25-2.66.25-1.72 0-3.18-.46t-2.52-1.39-1.64-2.31q-.58-1.37-.58-3.2 0-1.04.34-2.06.35-1.02 1.13-1.94.78-.93 2.03-1.75 1.24-.82 3.06-1.43 1.81-.61 4.22-1 2.41-.38 5.51-.46v-1.59q0-2.73-1.16-4.04-1.17-1.31-3.37-1.31-1.59 0-2.63.37-1.05.37-1.85.83l-1.44.84q-.65.37-1.44.37-.69 0-1.17-.36t-.77-.84m32.04-4.69.45 2.15q.82-.82 1.74-1.52.91-.71 1.93-1.2t2.19-.76q1.16-.28 2.54-.28 2.23 0 3.95.75 1.72.76 2.87 2.12 1.16 1.37 1.75 3.26.6 1.9.6 4.18v17.3h-6.55v-17.3q0-2.5-1.13-3.86-1.14-1.36-3.48-1.36-1.69 0-3.18.76-1.48.77-2.81 2.1v19.66h-6.54v-27.19h4q1.27 0 1.67 1.19m41.29 17.94v-12.19q-1.12-1.35-2.43-1.9-1.31-.56-2.82-.56-1.48 0-2.68.56-1.19.55-2.04 1.68-.84 1.13-1.3 2.86-.45 1.74-.45 4.1 0 2.38.39 4.04.38 1.65 1.1 2.7.71 1.05 1.75 1.51 1.03.46 2.3.46 2.04 0 3.47-.84 1.44-.85 2.71-2.42m0-31.32h6.54v39.38h-4q-1.3 0-1.64-1.19l-.56-2.63q-1.64 1.89-3.77 3.05-2.14 1.17-4.97 1.17-2.23 0-4.08-.93-1.86-.93-3.2-2.69t-2.06-4.36q-.73-2.6-.73-5.93 0-3.03.82-5.62.82-2.6 2.36-4.51 1.53-1.91 3.68-2.98t4.82-1.07q2.28 0 3.9.71 1.62.72 2.89 1.94zm13.22 12.19h6.57v27.19h-6.57zm7.47-7.92q0 .85-.34 1.59-.35.74-.92 1.3-.56.55-1.33.88-.77.34-1.65.34-.84 0-1.6-.34-.75-.33-1.31-.88-.56-.56-.89-1.3t-.33-1.59q0-.88.33-1.65.33-.76.89-1.32t1.31-.89q.76-.33 1.6-.33.88 0 1.65.33t1.33.89q.57.56.92 1.32.34.77.34 1.65m22.85 27.05v-12.19q-1.12-1.35-2.43-1.9-1.31-.56-2.82-.56-1.48 0-2.68.56-1.19.55-2.04 1.68t-1.3 2.86q-.45 1.74-.45 4.1 0 2.38.39 4.04.38 1.65 1.1 2.7.71 1.05 1.75 1.51 1.03.46 2.3.46 2.04 0 3.47-.84 1.43-.85 2.71-2.42m0-31.32h6.54v39.38h-4q-1.3 0-1.64-1.19l-.56-2.63q-1.64 1.89-3.78 3.05-2.13 1.17-4.96 1.17-2.23 0-4.08-.93-1.86-.93-3.2-2.69t-2.07-4.36q-.72-2.6-.72-5.93 0-3.03.82-5.62.82-2.6 2.36-4.51 1.53-1.91 3.68-2.98t4.82-1.07q2.28 0 3.9.71 1.61.72 2.89 1.94zm27.37 32.36v-4.59q-2.83.14-4.77.49-1.93.36-3.1.92-1.17.55-1.67 1.3-.5.74-.5 1.61 0 1.73 1.02 2.47t2.66.74q2.02 0 3.49-.73t2.87-2.21m-13.83-14.29-1.17-2.09q4.69-4.29 11.29-4.29 2.39 0 4.27.78t3.18 2.17 1.97 3.33q.68 1.93.68 4.24v17.17h-2.97q-.93 0-1.43-.28t-.8-1.12l-.58-1.97q-1.03.93-2.01 1.63-.98.71-2.04 1.18-1.06.48-2.27.73t-2.66.25q-1.73 0-3.18-.46-1.46-.46-2.52-1.39t-1.64-2.31q-.59-1.37-.59-3.2 0-1.04.35-2.06.34-1.02 1.12-1.94.79-.93 2.03-1.75 1.25-.82 3.06-1.43 1.82-.61 4.23-1 2.41-.38 5.51-.46v-1.59q0-2.73-1.16-4.04-1.17-1.31-3.37-1.31-1.59 0-2.64.37-1.04.37-1.84.83l-1.44.84q-.65.37-1.45.37-.69 0-1.16-.36-.48-.36-.77-.84m35.43 21.73q-3.55 0-5.45-2-1.89-2-1.89-5.52v-15.19h-2.78q-.53 0-.91-.34-.37-.35-.37-1.03v-2.6l4.38-.72 1.37-7.42q.14-.53.51-.82t.95-.29h3.39v8.56h7.26v4.66h-7.26v14.74q0 1.27.63 1.99.62.71 1.71.71.61 0 1.02-.15.41-.14.71-.3.31-.16.54-.3.24-.15.48-.15.29 0 .48.15.18.14.4.43l1.96 3.18q-1.43 1.2-3.29 1.8-1.85.61-3.84.61m15.82-17.14h12.35q0-1.27-.36-2.4t-1.07-1.97q-.72-.85-1.82-1.34t-2.56-.49q-2.83 0-4.46 1.61-1.63 1.62-2.08 4.59m16.69 3.95h-16.82q.16 2.09.74 3.61.58 1.53 1.54 2.52.95 1 2.26 1.49t2.9.49 2.75-.38q1.15-.37 2.01-.82t1.51-.82 1.26-.37q.82 0 1.22.61l1.88 2.39q-1.09 1.27-2.44 2.13t-2.82 1.38q-1.47.51-3 .73-1.52.21-2.95.21-2.84 0-5.27-.94-2.44-.94-4.24-2.79-1.81-1.84-2.84-4.55-1.03-2.72-1.03-6.3 0-2.78.9-5.23t2.58-4.27q1.69-1.81 4.11-2.87t5.47-1.06q2.57 0 4.75.82 2.17.82 3.73 2.4 1.57 1.57 2.45 3.87.89 2.29.89 5.23 0 1.48-.32 2-.31.52-1.22.52"/></svg>